<?xml version="1.0" encoding="UTF-8" standalone="no"?>
<!DOCTYPE svg PUBLIC "-//W3C//DTD SVG 1.1//EN" "http://www.w3.org/Graphics/SVG/1.1/DTD/svg11.dtd">
<!-- Created with Vectornator (http://vectornator.io/) -->
<svg height="100%" stroke-miterlimit="10" style="fill-rule:nonzero;clip-rule:evenodd;stroke-linecap:round;stroke-linejoin:round;" version="1.1" viewBox="0 0 1000 367.564" width="100%" xml:space="preserve" xmlns="http://www.w3.org/2000/svg" xmlns:vectornator="http://vectornator.io" xmlns:xlink="http://www.w3.org/1999/xlink">
<defs/>
<clipPath id="ArtboardFrame">
<rect height="367.564" width="1000" x="0" y="0"/>
</clipPath>
<g clip-path="url(#ArtboardFrame)" id="Untitled" vectornator:layerName="Untitled">
<g opacity="1">
<g opacity="1">
<path d="M144.133 262.471L74.8626 262.471L8.83912 76.9407L72.6979 76.9407L110.039 200.987L111.121 200.987L148.733 76.9407L209.886 76.9407L144.133 262.471ZM289.98 116.851C311.807 116.851 329.576 120.483 343.286 127.746C356.995 135.045 363.85 146.874 363.85 163.234L363.85 163.234L363.85 218.785C363.85 221.842 364.572 224.358 366.015 226.336C367.458 228.314 369.623 229.302 372.509 229.302L372.509 229.302L382.25 229.302L382.25 260.314C381.709 260.674 380.302 261.249 378.029 262.04C375.792 262.867 372.599 263.694 368.45 264.521C364.301 265.312 359.521 265.707 354.109 265.707L354.109 265.707C343.646 265.707 335.024 264.125 328.241 260.961C321.494 257.833 316.858 253.482 314.333 247.909L314.333 247.909C307.478 253.303 299.811 257.617 291.333 260.853C282.854 264.089 272.933 265.707 261.568 265.707L261.568 265.707C228.015 265.707 211.239 252.404 211.239 225.797L211.239 225.797C211.239 211.954 214.973 201.383 222.441 194.084C229.945 186.821 240.733 181.841 254.803 179.144C268.874 176.448 287.274 175.099 310.003 175.099L310.003 175.099L310.003 168.088C310.003 162.515 308.055 158.29 304.159 155.414C300.298 152.537 295.301 151.099 289.168 151.099L289.168 151.099C283.576 151.099 278.741 152.088 274.665 154.065C270.624 156.043 268.603 159.189 268.603 163.504L268.603 163.504L268.603 164.582L215.568 164.582C215.388 163.683 215.298 162.425 215.298 160.807L215.298 160.807C215.298 147.324 221.738 136.627 234.618 128.717C247.534 120.806 265.988 116.851 289.98 116.851L289.98 116.851ZM310.003 200.448C294.67 200.448 283.341 202.102 276.018 205.41C268.73 208.754 265.086 213.212 265.086 218.785L265.086 218.785C265.086 227.774 271.219 232.269 283.486 232.269L283.486 232.269C290.521 232.269 296.69 230.381 301.994 226.606C307.334 222.83 310.003 218.156 310.003 212.583L310.003 212.583L310.003 200.448ZM455.58 262.471L401.733 262.471L401.733 66.963L455.58 66.963L455.58 262.471ZM681.737 262.471L618.419 262.471L610.572 236.314L545.361 236.314L537.514 262.471L476.361 262.471L544.278 76.9407L613.819 76.9407L681.737 262.471ZM577.561 128.717L557.808 194.785L598.125 194.785L578.643 128.717L577.561 128.717ZM766.702 262.471L706.902 262.471L706.902 76.9407L766.702 76.9407L766.702 262.471Z" fill="#124948" fill-rule="nonzero" opacity="1" stroke="none"/>
<g opacity="1">
<path d="M814.438 207.431C813.789 209.58 813.435 211.838 813.435 214.167C813.435 224.148 819.73 232.741 828.742 236.612L828.742 238.899C828.742 253.455 841.206 265.298 856.526 265.298C858.387 265.298 860.201 265.067 861.986 264.73C865.461 271.973 873.055 276.9 882.098 276.9C889.789 276.9 896.123 273.26 899.712 267.436L912.43 267.436C914.177 267.436 915.595 266.023 915.595 264.282L915.595 249.982C924.6 248.092 933.324 244.496 941.098 239.458L951.245 249.572C951.84 250.165 952.644 250.496 953.483 250.496C954.322 250.496 955.129 250.165 955.721 249.572L973.636 231.716C974.874 230.483 974.874 228.489 973.636 227.255L963.485 217.141C968.54 209.394 972.152 200.702 974.048 191.724L988.395 191.724C990.143 191.724 991.561 190.311 991.561 188.57L991.561 163.332C991.561 161.591 990.143 160.178 988.395 160.178L974.048 160.178C972.152 151.203 968.54 142.508 963.485 134.764L973.636 124.647C974.874 123.413 974.874 121.419 973.636 120.186L955.721 102.33C954.534 101.147 952.432 101.147 951.245 102.33L941.098 112.447C933.327 107.409 924.604 103.81 915.595 101.923L915.595 87.6201C915.595 85.8788 914.177 84.4655 912.43 84.4655L896.978 84.4655C893.233 80.5284 887.985 78.1561 881.997 78.1561C874.115 78.1561 867.209 82.3108 863.306 88.5255L857.457 88.5255C842.153 88.5255 829.704 100.393 829.704 114.977L829.704 115.88C816.448 117.034 806.009 128.142 806.009 141.647C806.009 147.332 807.889 152.575 811.029 156.846C801.821 161.503 795.317 171.449 795.317 181.692C795.317 193.33 803.322 203.794 814.438 207.431ZM909.265 90.7748L909.265 104.529C909.265 106.066 910.376 107.378 911.895 107.64C921.783 109.337 931.387 113.299 939.667 119.101C940.923 119.981 942.636 119.829 943.725 118.747L953.483 109.021L966.923 122.416L957.164 132.142C956.075 133.227 955.927 134.931 956.81 136.186C962.631 144.445 966.609 154.017 968.312 163.865C968.572 165.38 969.888 166.487 971.43 166.487L985.23 166.487L985.23 185.415L971.43 185.415C969.888 185.415 968.572 186.522 968.312 188.036C966.609 197.889 962.634 207.46 956.81 215.716C955.927 216.968 956.075 218.675 957.164 219.76L966.923 229.486L953.483 242.88L943.725 233.155C942.639 232.076 940.923 231.921 939.667 232.804C931.38 238.606 921.777 242.568 911.895 244.265C910.376 244.524 909.265 245.836 909.265 247.373L909.265 261.127L902.279 261.127C902.684 259.392 902.919 257.569 902.919 255.647L902.919 223.113C927.63 221.482 947.248 200.983 947.248 175.951C947.248 150.919 927.63 130.42 902.919 128.789L902.919 100.005C902.919 96.6614 902.254 93.5541 901.076 90.7748L909.265 90.7748ZM902.919 216.804L902.919 135.098C924.138 136.713 940.917 154.395 940.917 175.951C940.917 197.507 924.138 215.189 902.919 216.804ZM815.695 161.736C820.154 165.317 825.814 167.471 831.98 167.471C833.727 167.471 835.145 166.058 835.145 164.317C835.145 162.575 833.727 161.162 831.98 161.162C821.151 161.162 812.339 152.408 812.339 141.647C812.339 130.855 821.151 122.072 831.98 122.072C837.215 122.072 842.131 124.104 845.824 127.792C847.062 129.025 849.062 129.025 850.3 127.798C851.538 126.565 851.541 124.571 850.306 123.334C846.385 119.419 841.418 116.946 836.034 116.107L836.034 114.977C836.034 103.87 845.644 94.8349 857.457 94.8349L860.619 94.8349C860.194 96.5352 859.944 98.305 859.944 100.135C859.944 101.128 860.017 102.084 860.128 103.04C860.331 104.769 861.91 106.04 863.635 105.81C865.373 105.611 866.617 104.043 866.414 102.315C866.332 101.598 866.275 100.879 866.275 100.135C866.275 91.4972 873.327 84.4655 881.997 84.4655C890.451 84.4655 896.588 91.002 896.588 100.005L896.588 255.647C896.588 264.446 890.628 270.591 882.098 270.591C873.226 270.591 866.275 264.083 866.275 255.777C866.275 253.572 866.759 251.338 867.671 249.319C868.392 247.732 867.683 245.862 866.091 245.149C864.499 244.433 862.625 245.139 861.904 246.723C860.603 249.59 859.944 252.638 859.944 255.777C859.944 256.767 860.036 257.729 860.169 258.679C858.97 258.868 857.751 258.985 856.526 258.988C844.694 258.988 835.069 249.975 835.072 238.899L835.072 238.439C836.484 238.666 837.927 238.811 839.405 238.811C843.381 238.811 847.195 237.978 850.746 236.331C852.332 235.599 853.019 233.722 852.285 232.142C851.547 230.561 849.664 229.874 848.078 230.612C845.369 231.864 842.45 232.502 839.405 232.502C828.577 232.502 819.765 224.277 819.765 214.167C819.765 204.64 827.697 196.589 837.823 195.832C839.567 195.702 840.874 194.188 840.741 192.45C840.611 190.712 839.095 189.406 837.348 189.541C828.701 190.188 821.278 194.929 817.087 201.639C809.174 199.255 801.647 191.642 801.647 181.692C801.647 173.115 807.601 164.856 815.695 161.736Z" fill="#000000" fill-rule="nonzero" opacity="1" stroke="none"/>
<path d="M860.326 211.826C861.843 212.084 863.599 212.239 865.502 212.239C875.542 212.239 889.576 207.854 893.017 190.699C893.359 188.989 892.248 187.33 890.535 186.986C888.813 186.648 887.152 187.752 886.81 189.459C882.904 208.914 862.27 205.753 861.384 205.605C859.668 205.318 858.032 206.472 857.737 208.185C857.446 209.901 858.605 211.532 860.326 211.826Z" fill="#000000" fill-rule="nonzero" opacity="1" stroke="none"/>
<path d="M883.834 269.853C877.01 265.941 870.002 267.802 869.702 267.884C868.024 268.345 867.046 270.064 867.499 271.739C867.951 273.414 869.689 274.411 871.367 273.969C872.645 273.635 884.069 271.143 888.199 286.746C888.573 288.159 889.855 289.096 891.26 289.096C891.526 289.096 891.798 289.061 892.07 288.992C893.761 288.547 894.77 286.822 894.321 285.137C892.4 277.881 888.87 272.739 883.834 269.853Z" fill="#000000" fill-rule="nonzero" opacity="1" stroke="none"/>
</g>
</g>
</g>
</g>
</svg>
